<svg xmlns="http://www.w3.org/2000/svg" xmlns:xlink="http://www.w3.org/1999/xlink"><symbol id="icon-credit" viewBox="0 0 34 30">
<path d="M32.7022 4.39716L11.8788 0.0350432C10.9978 -0.149457 10.1246 0.413172 9.93822 1.28524L9.54261 3.80181L33.5692 8.83467L33.9649 6.31811C34.1512 5.44636 33.5832 4.58172 32.7022 4.39716Z"/>
<path d="M23.9451 9.36838C23.7019 8.50137 22.7865 7.98889 21.9109 8.22926L17.9579 9.31553L8.63885 7.3633L7.61395 12.1567L1.21035 13.916C0.334793 14.1565 -0.182933 15.0625 0.0599021 15.9293L3.6687 28.8018C3.91193 29.6685 4.82732 30.1813 5.70288 29.9406L26.4035 24.2542C27.279 24.0134 27.7967 23.1077 27.5539 22.2406L26.9345 20.0308L29.2561 20.5167C30.1371 20.7015 31.0103 20.1389 31.1967 19.2668L32.6656 12.3962L24.3029 10.6445L23.9451 9.36838ZM26.3357 15.9107L26.8477 13.5157C26.9246 13.1571 27.2838 12.9258 27.646 13.0015L30.0656 13.5086C30.4282 13.5847 30.6619 13.9399 30.5854 14.2988L30.0734 16.6939C29.9965 17.0525 29.6374 17.2841 29.2751 17.2081L26.8555 16.7013C26.4926 16.6249 26.2589 16.2693 26.3357 15.9107ZM1.57058 15.2006L22.2704 9.51455C22.297 9.50745 22.3235 9.5041 22.3494 9.5041C22.466 9.5041 22.6055 9.57988 22.6463 9.72501L23.3522 12.2422L2.0638 18.0899L1.35797 15.573C1.31374 15.4151 1.41108 15.2444 1.57058 15.2006ZM26.2558 22.5968C26.283 22.6945 26.2545 22.7753 26.2255 22.8258C26.197 22.8763 26.1418 22.9424 26.0432 22.9692L5.34299 28.6556C5.31682 28.6627 5.28994 28.6664 5.26405 28.6664C5.14738 28.6664 5.00788 28.5903 4.9671 28.4452L2.8622 20.9368L24.1506 15.0888L26.2558 22.5968Z"/>
<path d="M8.68804 23.1106C8.58871 22.7571 8.21587 22.5483 7.8587 22.6463L5.44118 23.3106C5.08435 23.4086 4.87313 23.778 4.97246 24.1316L5.64324 26.5242C5.74258 26.8778 6.11541 27.0865 6.47258 26.9882L8.8901 26.3242C9.24727 26.2262 9.45816 25.8568 9.35915 25.5033L8.68804 23.1106Z"/>
</symbol><symbol id="icon-cross" viewBox="0 0 18 18">
<path d="M1 1L17 17M17 1L1 17"/>
</symbol><symbol id="icon-deposit" viewBox="0 0 34 33">
<path d="M4.20734 26.063H29.7924V4.36579H4.20734V26.063ZM12.8681 11.7959C14.4742 11.7959 15.8268 12.8933 16.2055 14.3724H23.727V16.056H16.2055C15.8267 17.5352 14.4742 18.6327 12.8681 18.6327C10.9695 18.6327 9.42492 17.0991 9.42492 15.2142C9.42483 13.3294 10.9695 11.7959 12.8681 11.7959Z"/>
<path d="M0 0V30.4287H2.48008V33H5.44779V30.4287H28.5522V33H31.5199V30.4287H34V0H0ZM2.51162 27.7466V2.68218H31.4884V27.7466H2.51162Z"/>
</symbol><symbol id="icon-eyelashes" viewBox="0 0 22 12">
<path d="M8.29878 12L6.33638 11.4893L7.13618 8.59185C5.93899 8.16352 4.82634 7.5393 3.84654 6.7463L1.65854 8.86987L0.220528 7.47486L2.40955 5.35228C1.17386 3.91662 0.343585 2.19431 0 0.353927L2 0C2.77134 4.14262 6.50711 7.28557 11 7.28557C15.4919 7.28557 19.2287 4.14262 20 0L22 0.352941C21.6569 2.19358 20.827 3.91624 19.5915 5.35228L21.7795 7.47486L20.3415 8.86987L18.1535 6.7463C17.1737 7.5393 16.061 8.16352 14.8638 8.59185L15.6636 11.4903L13.7012 12L12.9004 9.10155C11.6426 9.31063 10.3574 9.31063 9.0996 9.10155L8.29878 12Z"/>
</symbol><symbol id="icon-handset" viewBox="0 0 16 16">
<path d="M15.9991 11.9282V15.0712C15.9992 15.2962 15.914 15.5129 15.7605 15.6775C15.6071 15.8422 15.397 15.9425 15.1725 15.9582C14.7841 15.9849 14.4668 15.9991 14.2214 15.9991C6.36676 15.9991 0 9.63235 0 1.77768C0 1.53236 0.0133326 1.21504 0.0408866 0.826621C0.056639 0.602139 0.156952 0.391988 0.321585 0.238572C0.486218 0.0851569 0.702915 -0.000101713 0.927949 2.28058e-07H4.07089C4.18114 -0.000111402 4.28749 0.0407613 4.36929 0.114678C4.4511 0.188596 4.5025 0.29028 4.51353 0.399978C4.53397 0.604411 4.55264 0.767069 4.57041 0.890617C4.74706 2.12337 5.10905 3.32233 5.64413 4.44687C5.72857 4.62463 5.67346 4.83706 5.51347 4.95084L3.59536 6.32143C4.76814 9.05412 6.94588 11.2319 9.67857 12.4046L11.0474 10.4901C11.1033 10.4119 11.185 10.3558 11.278 10.3316C11.3711 10.3074 11.4697 10.3166 11.5567 10.3576C12.6811 10.8917 13.8797 11.2528 15.1121 11.4287C15.2356 11.4465 15.3983 11.466 15.6009 11.4856C15.7105 11.4968 15.8119 11.5483 15.8857 11.6301C15.9594 11.7119 16.0001 11.8181 16 11.9282H15.9991Z"/>
</symbol><symbol id="icon-insurance" viewBox="0 0 28 34">
<path d="M27.9234 5.31216C22.1552 5.31216 17.7362 3.65462 13.9995 0C10.2631 3.65462 5.84431 5.31216 0.0766133 5.31216C0.0766133 14.8295 -1.88138 28.4631 13.9994 34C29.8813 28.4632 27.9234 14.8296 27.9234 5.31216ZM12.8461 22.0601L8.2074 17.3939L10.2843 15.3051L12.8461 17.8823L17.7151 12.9849L19.7919 15.0737L12.8461 22.0601Z"/>
</symbol><symbol id="icon-login" viewBox="0 0 20 22">
<path d="M2.22222 14.3H4.44444V19.8H17.7778V2.2H4.44444V7.7H2.22222V1.1C2.22222 0.808262 2.33929 0.528472 2.54766 0.322183C2.75603 0.115892 3.03865 0 3.33333 0H18.8889C19.1836 0 19.4662 0.115892 19.6746 0.322183C19.8829 0.528472 20 0.808262 20 1.1V20.9C20 21.1917 19.8829 21.4715 19.6746 21.6778C19.4662 21.8841 19.1836 22 18.8889 22H3.33333C3.03865 22 2.75603 21.8841 2.54766 21.6778C2.33929 21.4715 2.22222 21.1917 2.22222 20.9V14.3ZM8.88889 9.9V6.6L14.4444 11L8.88889 15.4V12.1H0V9.9H8.88889Z"/>
</symbol><symbol id="icon-menu" viewBox="0 0 16 12">
<path d="M0 1H16M0 6H16M0 11H16"/>
</symbol><symbol id="icon-pin" viewBox="0 0 37 42">
<path d="M30.8744 29.2842L18.5 41L6.12556 29.2842C3.67816 26.967 2.01147 24.0148 1.33625 20.8008C0.661026 17.5869 1.0076 14.2555 2.33214 11.228C3.65668 8.20049 5.89969 5.61285 8.77755 3.79229C11.6554 1.97172 15.0388 1 18.5 1C21.9612 1 25.3446 1.97172 28.2225 3.79229C31.1003 5.61285 33.3433 8.20049 34.6679 11.228C35.9924 14.2555 36.339 17.5869 35.6637 20.8008C34.9885 24.0148 33.3218 26.967 30.8744 29.2842Z"/>
<path d="M19.5179 10.2308H17.8214L10.3564 22.4884H12.562L13.5799 20.7373L19.5179 10.2308Z"/>
<path d="M11.3744 24.5897H25.6256L19.5179 13.733L18.5 15.4841L21.5538 20.7373L22.5718 22.4884H12.562H10.3564L11.3744 24.5897Z"/>
<path d="M22.5718 22.4884L21.5538 20.7373H15.4462H13.5799L12.562 22.4884H22.5718Z"/>
<path d="M25.6256 24.5897L26.6436 22.4884L19.5179 10.2308L13.5799 20.7373H15.4462L18.5 15.4841L19.5179 13.733L25.6256 24.5897Z"/>
<path d="M18.5 15.4841L15.4462 20.7373H21.5538L18.5 15.4841Z"/>
<path d="M25.6256 24.5897H11.3744L10.3564 22.4884M25.6256 24.5897L26.6436 22.4884L19.5179 10.2308M25.6256 24.5897L19.5179 13.733L18.5 15.4841M19.5179 10.2308H17.8214L10.3564 22.4884M19.5179 10.2308L13.5799 20.7373M10.3564 22.4884H12.562M18.5 15.4841L15.4462 20.7373M18.5 15.4841L21.5538 20.7373M15.4462 20.7373H21.5538M15.4462 20.7373H13.5799M21.5538 20.7373L22.5718 22.4884H12.562M13.5799 20.7373L12.562 22.4884M30.8744 29.2842L18.5 41L6.12556 29.2842C3.67816 26.967 2.01147 24.0148 1.33625 20.8008C0.661026 17.5869 1.0076 14.2555 2.33214 11.228C3.65668 8.20049 5.89969 5.61285 8.77755 3.79229C11.6554 1.97172 15.0388 1 18.5 1C21.9612 1 25.3446 1.97172 28.2225 3.79229C31.1003 5.61285 33.3433 8.20049 34.6679 11.228C35.9924 14.2555 36.339 17.5869 35.6637 20.8008C34.9885 24.0148 33.3218 26.967 30.8744 29.2842Z"/>
</symbol><symbol id="icon-smartphone" viewBox="0 0 20 34">
<path d="M17.6746 0H2.3254C1.04663 0 0 1.03263 0 2.29646V31.7026C0 32.9664 1.04663 34 2.3254 34H17.6746C18.9534 34 20 32.9683 20 31.7035V2.29646C20 1.03263 18.9534 0 17.6746 0ZM7.54476 1.65531H12.4552C12.6107 1.65531 12.7366 1.77966 12.7366 1.93411C12.7366 2.0876 12.6107 2.21194 12.4552 2.21194H7.54476C7.38934 2.21194 7.26343 2.0876 7.26343 1.93411C7.26343 1.77966 7.38934 1.65531 7.54476 1.65531ZM10 32.8518C9.35766 32.8518 8.8373 32.3379 8.8373 31.7026C8.8373 31.0673 9.35766 30.5543 10 30.5543C10.6423 30.5543 11.1627 31.0673 11.1627 31.7026C11.1627 32.3379 10.6423 32.8518 10 32.8518ZM18.3819 29.75H1.61814V3.64189H18.3819V29.75Z"/>
</symbol><symbol id="icon-social_facebook" viewBox="0 0 9 16">
<path d="M6 9.2H8.14286L9 6H6V4.4C6 3.576 6 2.8 7.71429 2.8H9V0.112C8.72057 0.0776001 7.66543 0 6.55114 0C4.224 0 2.57143 1.3256 2.57143 3.76V6H0V9.2H2.57143V16H6V9.2Z"/>
</symbol><symbol id="icon-social_instagram" viewBox="0 0 16 16">
<path d="M8 0C10.1736 0 10.4448 0.00799995 11.2976 0.048C12.1496 0.088 12.7296 0.2216 13.24 0.42C13.768 0.6232 14.2128 0.8984 14.6576 1.3424C15.0644 1.74232 15.3792 2.22607 15.58 2.76C15.7776 3.2696 15.912 3.8504 15.952 4.7024C15.9896 5.5552 16 5.8264 16 8C16 10.1736 15.992 10.4448 15.952 11.2976C15.912 12.1496 15.7776 12.7296 15.58 13.24C15.3797 13.7742 15.0649 14.2581 14.6576 14.6576C14.2576 15.0643 13.7738 15.379 13.24 15.58C12.7304 15.7776 12.1496 15.912 11.2976 15.952C10.4448 15.9896 10.1736 16 8 16C5.8264 16 5.5552 15.992 4.7024 15.952C3.8504 15.912 3.2704 15.7776 2.76 15.58C2.22586 15.3796 1.74202 15.0648 1.3424 14.6576C0.935525 14.2577 0.620745 13.774 0.42 13.24C0.2216 12.7304 0.088 12.1496 0.048 11.2976C0.0104 10.4448 0 10.1736 0 8C0 5.8264 0.00799995 5.5552 0.048 4.7024C0.088 3.8496 0.2216 3.2704 0.42 2.76C0.620189 2.22574 0.935043 1.74186 1.3424 1.3424C1.74214 0.935385 2.22594 0.620583 2.76 0.42C3.2704 0.2216 3.8496 0.088 4.7024 0.048C5.5552 0.0104 5.8264 0 8 0ZM8 4C6.93913 4 5.92172 4.42143 5.17157 5.17157C4.42143 5.92172 4 6.93913 4 8C4 9.06087 4.42143 10.0783 5.17157 10.8284C5.92172 11.5786 6.93913 12 8 12C9.06087 12 10.0783 11.5786 10.8284 10.8284C11.5786 10.0783 12 9.06087 12 8C12 6.93913 11.5786 5.92172 10.8284 5.17157C10.0783 4.42143 9.06087 4 8 4ZM13.2 3.8C13.2 3.53478 13.0946 3.28043 12.9071 3.09289C12.7196 2.90536 12.4652 2.8 12.2 2.8C11.9348 2.8 11.6804 2.90536 11.4929 3.09289C11.3054 3.28043 11.2 3.53478 11.2 3.8C11.2 4.06522 11.3054 4.31957 11.4929 4.50711C11.6804 4.69464 11.9348 4.8 12.2 4.8C12.4652 4.8 12.7196 4.69464 12.9071 4.50711C13.0946 4.31957 13.2 4.06522 13.2 3.8ZM8 5.6C8.63652 5.6 9.24697 5.85286 9.69706 6.30294C10.1471 6.75303 10.4 7.36348 10.4 8C10.4 8.63652 10.1471 9.24697 9.69706 9.69706C9.24697 10.1471 8.63652 10.4 8 10.4C7.36348 10.4 6.75303 10.1471 6.30294 9.69706C5.85286 9.24697 5.6 8.63652 5.6 8C5.6 7.36348 5.85286 6.75303 6.30294 6.30294C6.75303 5.85286 7.36348 5.6 8 5.6Z"/>
</symbol><symbol id="icon-social_twitter" viewBox="0 0 16 13">
<path d="M15.9992 1.54324C15.4 1.80812 14.7645 1.98209 14.1138 2.05937C14.7996 1.64947 15.313 1.00438 15.5581 0.244297C14.9144 0.627078 14.2088 0.895338 13.4733 1.04045C12.9793 0.512227 12.3245 0.161908 11.6106 0.0439529C10.8968 -0.0740019 10.164 0.047017 9.52611 0.388195C8.88822 0.729374 8.38099 1.2716 8.08329 1.93057C7.78559 2.58954 7.71409 3.32833 7.87991 4.0321C6.57465 3.96673 5.29775 3.62777 4.13209 3.03724C2.96644 2.4467 1.93809 1.6178 1.11381 0.604331C0.822049 1.10512 0.668725 1.67441 0.669545 2.2539C0.669545 3.39126 1.24882 4.39606 2.12951 4.98435C1.60833 4.96795 1.09861 4.8273 0.642857 4.57411V4.6149C0.643014 5.37238 0.905313 6.1065 1.38528 6.69279C1.86525 7.27907 2.53335 7.68144 3.27629 7.83167C2.79248 7.96269 2.28517 7.98201 1.79278 7.88815C2.00225 8.54016 2.41052 9.11038 2.96043 9.51897C3.51034 9.92757 4.17436 10.1541 4.8595 10.1668C4.17856 10.7012 3.39888 11.0963 2.56506 11.3294C1.73123 11.5625 0.859598 11.6291 0 11.5253C1.50055 12.4897 3.24733 13.0017 5.0314 13C11.0699 13 14.3721 8.0011 14.3721 3.66579C14.3721 3.5246 14.3681 3.38184 14.3619 3.24222C15.0046 2.778 15.5593 2.20293 16 1.54403L15.9992 1.54324Z"/>
</symbol><symbol id="icon-social_youtube" viewBox="0 0 16 13">
<path d="M15.6344 2.02963C16 3.4775 16 6.5 16 6.5C16 6.5 16 9.5225 15.6344 10.9704C15.4312 11.7707 14.8368 12.4004 14.084 12.6132C12.7168 13 8 13 8 13C8 13 3.2856 13 1.916 12.6132C1.16 12.3971 0.5664 11.7683 0.3656 10.9704C2.38419e-08 9.5225 0 6.5 0 6.5C0 6.5 2.38419e-08 3.4775 0.3656 2.02963C0.5688 1.22931 1.1632 0.599625 1.916 0.38675C3.2856 -1.45286e-07 8 0 8 0C8 0 12.7168 -1.45286e-07 14.084 0.38675C14.84 0.602875 15.4336 1.23175 15.6344 2.02963ZM6.4 9.34375L11.2 6.5L6.4 3.65625V9.34375Z"/>
</symbol><symbol id="logo" viewBox="0 0 150 27">
<path d="M51.1 26H48.08V14.24H44.58C44.5 14.8533 44.4133 15.52 44.32 16.24C44.24 16.96 44.1467 17.6933 44.04 18.44C43.9467 19.1733 43.8467 19.8733 43.74 20.54C43.6333 21.1933 43.5267 21.7733 43.42 22.28C43.2467 23.1067 43.0133 23.8133 42.72 24.4C42.44 24.9867 42.0467 25.4333 41.54 25.74C41.0467 26.0467 40.4 26.2 39.6 26.2C39.08 26.2 38.6 26.1267 38.16 25.98V23.5C38.3333 23.5533 38.5 23.6 38.66 23.64C38.8333 23.68 39.02 23.7 39.22 23.7C39.6067 23.7 39.9 23.5 40.1 23.1C40.3133 22.6867 40.5267 21.92 40.74 20.8C40.82 20.3733 40.9333 19.7067 41.08 18.8C41.2267 17.8933 41.3867 16.8333 41.56 15.62C41.7467 14.3933 41.92 13.0933 42.08 11.72H51.1V26ZM54.7023 11.72H57.4223V18.62C57.4223 18.9533 57.4157 19.3267 57.4023 19.74C57.389 20.1533 57.3757 20.56 57.3623 20.96C57.349 21.3467 57.3357 21.6867 57.3223 21.98C57.309 22.26 57.2957 22.4533 57.2823 22.56H57.3423L63.9423 11.72H67.5623V26H64.8623V19.14C64.8623 18.78 64.869 18.3867 64.8823 17.96C64.8957 17.52 64.909 17.1 64.9223 16.7C64.949 16.3 64.969 15.9533 64.9823 15.66C65.009 15.3533 65.029 15.1533 65.0423 15.06H64.9623L58.3423 26H54.7023V11.72ZM80.1872 11.72V14.22H74.1872V26H71.1672V11.72H80.1872ZM89.7119 26L88.6719 22.6H83.4719L82.4319 26H79.1719L84.2119 11.66H87.9119L92.9719 26H89.7119ZM87.9519 20.06L86.9119 16.74C86.8452 16.5133 86.7585 16.2267 86.6519 15.88C86.5452 15.5333 86.4385 15.18 86.3319 14.82C86.2252 14.46 86.1385 14.1467 86.0719 13.88C86.0052 14.1467 85.9119 14.48 85.7919 14.88C85.6852 15.2667 85.5785 15.64 85.4719 16C85.3785 16.3467 85.3052 16.5933 85.2519 16.74L84.2319 20.06H87.9519ZM100.503 26V11.72H109.523V14.22H103.523V17.2H104.723C106.07 17.2 107.17 17.3867 108.023 17.76C108.89 18.1333 109.53 18.6467 109.943 19.3C110.356 19.9533 110.563 20.7 110.563 21.54C110.563 22.9533 110.09 24.0533 109.143 24.84C108.21 25.6133 106.716 26 104.663 26H100.503ZM103.523 23.52H104.543C105.463 23.52 106.183 23.3733 106.703 23.08C107.236 22.7867 107.503 22.2733 107.503 21.54C107.503 20.78 107.216 20.28 106.643 20.04C106.07 19.8 105.29 19.68 104.303 19.68H103.523V23.52ZM117.497 14.86C118.964 14.86 120.084 15.18 120.857 15.82C121.644 16.4467 122.037 17.4133 122.037 18.72V26H119.957L119.377 24.52H119.297C118.83 25.1067 118.337 25.5333 117.817 25.8C117.297 26.0667 116.584 26.2 115.677 26.2C114.704 26.2 113.897 25.92 113.257 25.36C112.617 24.7867 112.297 23.9133 112.297 22.74C112.297 21.58 112.704 20.7267 113.517 20.18C114.33 19.62 115.55 19.3133 117.177 19.26L119.077 19.2V18.72C119.077 18.1467 118.924 17.7267 118.617 17.46C118.324 17.1933 117.91 17.06 117.377 17.06C116.844 17.06 116.324 17.14 115.817 17.3C115.31 17.4467 114.804 17.6333 114.297 17.86L113.317 15.84C113.904 15.5333 114.55 15.2933 115.257 15.12C115.977 14.9467 116.724 14.86 117.497 14.86ZM119.077 20.94L117.917 20.98C116.957 21.0067 116.29 21.18 115.917 21.5C115.544 21.82 115.357 22.24 115.357 22.76C115.357 23.2133 115.49 23.54 115.757 23.74C116.024 23.9267 116.37 24.02 116.797 24.02C117.437 24.02 117.977 23.8333 118.417 23.46C118.857 23.0733 119.077 22.5333 119.077 21.84V20.94ZM128.067 15.08V19.28H132.227V15.08H135.207V26H132.227V21.5H128.067V26H125.087V15.08H128.067ZM145.49 15.08H148.77L144.45 20.32L149.15 26H145.77L141.31 20.46V26H138.33V15.08H141.31V20.38L145.49 15.08Z"/>
<path d="M16.75 1H13.8333L1 22.3415H4.79167L6.54167 19.2927L16.75 1Z"/>
<path d="M2.75 26H27.25L16.75 7.09756L15 10.1463L20.25 19.2927L22 22.3415H4.79167H1L2.75 26Z"/>
<path d="M22 22.3415L20.25 19.2927H9.75H6.54167L4.79167 22.3415H22Z"/>
<path d="M27.25 26L29 22.3415L16.75 1L6.54167 19.2927H9.75L15 10.1463L16.75 7.09756L27.25 26Z"/>
<path d="M15 10.1463L9.75 19.2927H20.25L15 10.1463Z"/>
<path d="M27.25 26H2.75L1 22.3415M27.25 26L29 22.3415L16.75 1M27.25 26L16.75 7.09756L15 10.1463M16.75 1H13.8333L1 22.3415M16.75 1L6.54167 19.2927M1 22.3415H4.79167M15 10.1463L9.75 19.2927M15 10.1463L20.25 19.2927M9.75 19.2927H20.25M9.75 19.2927H6.54167M20.25 19.2927L22 22.3415H4.79167M6.54167 19.2927L4.79167 22.3415"/>
</symbol><symbol id="logo_mobile" viewBox="0 0 114 19">
<path d="M35.48 18H33.064V8.592H30.264C30.2 9.08267 30.1307 9.616 30.056 10.192C29.992 10.768 29.9173 11.3547 29.832 11.952C29.7573 12.5387 29.6773 13.0987 29.592 13.632C29.5067 14.1547 29.4213 14.6187 29.336 15.024C29.1973 15.6853 29.0107 16.2507 28.776 16.72C28.552 17.1893 28.2373 17.5467 27.832 17.792C27.4373 18.0373 26.92 18.16 26.28 18.16C25.864 18.16 25.48 18.1013 25.128 17.984V16C25.2667 16.0427 25.4 16.08 25.528 16.112C25.6667 16.144 25.816 16.16 25.976 16.16C26.2853 16.16 26.52 16 26.68 15.68C26.8507 15.3493 27.0213 14.736 27.192 13.84C27.256 13.4987 27.3467 12.9653 27.464 12.24C27.5813 11.5147 27.7093 10.6667 27.848 9.696C27.9973 8.71467 28.136 7.67467 28.264 6.576H35.48V18ZM38.3619 6.576H40.5379V12.096C40.5379 12.3627 40.5325 12.6613 40.5219 12.992C40.5112 13.3227 40.5005 13.648 40.4899 13.968C40.4792 14.2773 40.4685 14.5493 40.4579 14.784C40.4472 15.008 40.4365 15.1627 40.4259 15.248H40.4739L45.7539 6.576H48.6499V18H46.4899V12.512C46.4899 12.224 46.4952 11.9093 46.5059 11.568C46.5165 11.216 46.5272 10.88 46.5379 10.56C46.5592 10.24 46.5752 9.96267 46.5859 9.728C46.6072 9.48267 46.6232 9.32267 46.6339 9.248H46.5699L41.2739 18H38.3619V6.576ZM58.7498 6.576V8.576H53.9498V18H51.5338V6.576H58.7498ZM66.3695 18L65.5375 15.28H61.3775L60.5455 18H57.9375L61.9695 6.528H64.9295L68.9775 18H66.3695ZM64.9615 13.248L64.1295 10.592C64.0762 10.4107 64.0068 10.1813 63.9215 9.904C63.8362 9.62667 63.7508 9.344 63.6655 9.056C63.5802 8.768 63.5108 8.51733 63.4575 8.304C63.4042 8.51733 63.3295 8.784 63.2335 9.104C63.1482 9.41333 63.0628 9.712 62.9775 10C62.9028 10.2773 62.8442 10.4747 62.8015 10.592L61.9855 13.248H64.9615ZM75.0025 18V6.576H82.2185V8.576H77.4185V10.96H78.3785C79.4558 10.96 80.3358 11.1093 81.0185 11.408C81.7118 11.7067 82.2238 12.1173 82.5545 12.64C82.8852 13.1627 83.0505 13.76 83.0505 14.432C83.0505 15.5627 82.6718 16.4427 81.9145 17.072C81.1678 17.6907 79.9732 18 78.3305 18H75.0025ZM77.4185 16.016H78.2345C78.9705 16.016 79.5465 15.8987 79.9625 15.664C80.3892 15.4293 80.6025 15.0187 80.6025 14.432C80.6025 13.824 80.3732 13.424 79.9145 13.232C79.4558 13.04 78.8318 12.944 78.0425 12.944H77.4185V16.016ZM88.5976 9.088C89.771 9.088 90.667 9.344 91.2856 9.856C91.915 10.3573 92.2296 11.1307 92.2296 12.176V18H90.5656L90.1016 16.816H90.0376C89.6643 17.2853 89.2696 17.6267 88.8536 17.84C88.4376 18.0533 87.867 18.16 87.1416 18.16C86.363 18.16 85.7176 17.936 85.2056 17.488C84.6936 17.0293 84.4376 16.3307 84.4376 15.392C84.4376 14.464 84.763 13.7813 85.4136 13.344C86.0643 12.896 87.0403 12.6507 88.3416 12.608L89.8616 12.56V12.176C89.8616 11.7173 89.739 11.3813 89.4936 11.168C89.259 10.9547 88.9283 10.848 88.5016 10.848C88.075 10.848 87.659 10.912 87.2536 11.04C86.8483 11.1573 86.443 11.3067 86.0376 11.488L85.2536 9.872C85.723 9.62667 86.2403 9.43467 86.8056 9.296C87.3816 9.15733 87.979 9.088 88.5976 9.088ZM89.8616 13.952L88.9336 13.984C88.1656 14.0053 87.6323 14.144 87.3336 14.4C87.035 14.656 86.8856 14.992 86.8856 15.408C86.8856 15.7707 86.9923 16.032 87.2056 16.192C87.419 16.3413 87.6963 16.416 88.0376 16.416C88.5496 16.416 88.9816 16.2667 89.3336 15.968C89.6856 15.6587 89.8616 15.2267 89.8616 14.672V13.952ZM97.0539 9.264V12.624H100.382V9.264H102.766V18H100.382V14.4H97.0539V18H94.6699V9.264H97.0539ZM110.992 9.264H113.616L110.16 13.456L113.92 18H111.216L107.648 13.568V18H105.264V9.264H107.648V13.504L110.992 9.264Z"/>
<path d="M11.125 1H9.25L1 15.5122H3.4375L4.5625 13.439L11.125 1Z"/>
<path d="M2.125 18H17.875L11.125 5.14634L10 7.21951L13.375 13.439L14.5 15.5122H3.4375H1L2.125 18Z"/>
<path d="M14.5 15.5122L13.375 13.439H6.625H4.5625L3.4375 15.5122H14.5Z"/>
<path d="M17.875 18L19 15.5122L11.125 1L4.5625 13.439H6.625L10 7.21951L11.125 5.14634L17.875 18Z"/>
<path d="M10 7.21951L6.625 13.439H13.375L10 7.21951Z"/>
<path d="M17.875 18H2.125L1 15.5122M17.875 18L19 15.5122L11.125 1M17.875 18L11.125 5.14634L10 7.21951M11.125 1H9.25L1 15.5122M11.125 1L4.5625 13.439M1 15.5122H3.4375M10 7.21951L6.625 13.439M10 7.21951L13.375 13.439M6.625 13.439H13.375M6.625 13.439H4.5625M13.375 13.439L14.5 15.5122H3.4375M4.5625 13.439L3.4375 15.5122"/>
</symbol><symbol id="logo_tablet" viewBox="0 0 134 24">
<path d="M14.5 1H12L1 19.7805H4.25L5.75 17.0976L14.5 1Z"/>
<path d="M2.5 23H23.5L14.5 6.36585L13 9.04878L17.5 17.0976L19 19.7805H4.25H1L2.5 23Z"/>
<path d="M19 19.7805L17.5 17.0976H8.5H5.75L4.25 19.7805H19Z"/>
<path d="M23.5 23L25 19.7805L14.5 1L5.75 17.0976H8.5L13 9.04878L14.5 6.36585L23.5 23Z"/>
<path d="M13 9.04878L8.5 17.0976H17.5L13 9.04878Z"/>
<path d="M23.5 23H2.5L1 19.7805M23.5 23L25 19.7805L14.5 1M23.5 23L14.5 6.36585L13 9.04878M14.5 1H12L1 19.7805M14.5 1L5.75 17.0976M1 19.7805H4.25M13 9.04878L8.5 17.0976M13 9.04878L17.5 17.0976M8.5 17.0976H17.5M8.5 17.0976H5.75M17.5 17.0976L19 19.7805H4.25M5.75 17.0976L4.25 19.7805"/>
<path d="M44.79 23H42.072V12.416H38.922C38.85 12.968 38.772 13.568 38.688 14.216C38.616 14.864 38.532 15.524 38.436 16.196C38.352 16.856 38.262 17.486 38.166 18.086C38.07 18.674 37.974 19.196 37.878 19.652C37.722 20.396 37.512 21.032 37.248 21.56C36.996 22.088 36.642 22.49 36.186 22.766C35.742 23.042 35.16 23.18 34.44 23.18C33.972 23.18 33.54 23.114 33.144 22.982V20.75C33.3 20.798 33.45 20.84 33.594 20.876C33.75 20.912 33.918 20.93 34.098 20.93C34.446 20.93 34.71 20.75 34.89 20.39C35.082 20.018 35.274 19.328 35.466 18.32C35.538 17.936 35.64 17.336 35.772 16.52C35.904 15.704 36.048 14.75 36.204 13.658C36.372 12.554 36.528 11.384 36.672 10.148H44.79V23ZM48.0321 10.148H50.4801V16.358C50.4801 16.658 50.4741 16.994 50.4621 17.366C50.4501 17.738 50.4381 18.104 50.4261 18.464C50.4141 18.812 50.4021 19.118 50.3901 19.382C50.3781 19.634 50.3661 19.808 50.3541 19.904H50.4081L56.3481 10.148H59.6061V23H57.1761V16.826C57.1761 16.502 57.1821 16.148 57.1941 15.764C57.2061 15.368 57.2181 14.99 57.2301 14.63C57.2541 14.27 57.2721 13.958 57.2841 13.694C57.3081 13.418 57.3261 13.238 57.3381 13.154H57.2661L51.3081 23H48.0321V10.148ZM70.9685 10.148V12.398H65.5685V23H62.8505V10.148H70.9685ZM79.5407 23L78.6047 19.94H73.9247L72.9887 23H70.0547L74.5907 10.094H77.9207L82.4747 23H79.5407ZM77.9567 17.654L77.0207 14.666C76.9607 14.462 76.8827 14.204 76.7867 13.892C76.6907 13.58 76.5947 13.262 76.4987 12.938C76.4027 12.614 76.3247 12.332 76.2647 12.092C76.2047 12.332 76.1207 12.632 76.0127 12.992C75.9167 13.34 75.8207 13.676 75.7247 14C75.6407 14.312 75.5747 14.534 75.5267 14.666L74.6087 17.654H77.9567ZM89.2528 23V10.148H97.3708V12.398H91.9708V15.08H93.0508C94.2628 15.08 95.2528 15.248 96.0208 15.584C96.8008 15.92 97.3768 16.382 97.7488 16.97C98.1208 17.558 98.3068 18.23 98.3068 18.986C98.3068 20.258 97.8808 21.248 97.0288 21.956C96.1888 22.652 94.8448 23 92.9968 23H89.2528ZM91.9708 20.768H92.8888C93.7168 20.768 94.3648 20.636 94.8328 20.372C95.3128 20.108 95.5528 19.646 95.5528 18.986C95.5528 18.302 95.2948 17.852 94.7788 17.636C94.2628 17.42 93.5608 17.312 92.6728 17.312H91.9708V20.768ZM104.547 12.974C105.867 12.974 106.875 13.262 107.571 13.838C108.279 14.402 108.633 15.272 108.633 16.448V23H106.761L106.239 21.668H106.167C105.747 22.196 105.303 22.58 104.835 22.82C104.367 23.06 103.725 23.18 102.909 23.18C102.033 23.18 101.307 22.928 100.731 22.424C100.155 21.908 99.8673 21.122 99.8673 20.066C99.8673 19.022 100.233 18.254 100.965 17.762C101.697 17.258 102.795 16.982 104.259 16.934L105.969 16.88V16.448C105.969 15.932 105.831 15.554 105.555 15.314C105.291 15.074 104.919 14.954 104.439 14.954C103.959 14.954 103.491 15.026 103.035 15.17C102.579 15.302 102.123 15.47 101.667 15.674L100.785 13.856C101.313 13.58 101.895 13.364 102.531 13.208C103.179 13.052 103.851 12.974 104.547 12.974ZM105.969 18.446L104.925 18.482C104.061 18.506 103.461 18.662 103.125 18.95C102.789 19.238 102.621 19.616 102.621 20.084C102.621 20.492 102.741 20.786 102.981 20.966C103.221 21.134 103.533 21.218 103.917 21.218C104.493 21.218 104.979 21.05 105.375 20.714C105.771 20.366 105.969 19.88 105.969 19.256V18.446ZM114.061 13.172V16.952H117.805V13.172H120.487V23H117.805V18.95H114.061V23H111.379V13.172H114.061ZM129.741 13.172H132.693L128.805 17.888L133.035 23H129.993L125.979 18.014V23H123.297V13.172H125.979V17.942L129.741 13.172Z"/>
</symbol></svg>