<svg width="22" height="22" viewBox="0 0 22 22" fill="none" xmlns="http://www.w3.org/2000/svg">
<path d="M9.0996 21.1015L7.13618 20.5918C5.93899 20.1635 4.82634 19.5393 3.84654 18.7463L2.40955 17.3522C1.17386 15.9166 0 14 0 12C0 9.99991 2 12 2 12C2.77134 16.1426 6.50712 19.2855 11 19.2855C15.4919 19.2855 19.2287 16.1426 20 12C20 12 22 9.99991 22 12C22 14 19.5 17.5 19.5915 17.3522C19.6829 17.2045 18.1535 18.7463 18.1535 18.7463C17.1737 19.5393 16.061 20.1635 14.8638 20.5918L12.9004 21.1015C11.6426 21.3106 10.3574 21.3106 9.0996 21.1015Z" fill="#1F1E25"/>
<path d="M13 12C13 13.1046 12.1046 14 11 14C9.89543 14 9 13.1046 9 12C9 10.8954 9.89543 10 11 10C12.1046 10 13 10.8954 13 12Z" fill="#1F1E25"/>
<path d="M13.7012 0L15.6636 0.51068L14.8638 3.40815C16.061 3.83648 17.1737 4.4607 18.1535 5.2537L20.3415 3.13013L21.7795 4.52514L19.5904 6.64772C20.8261 8.08338 22 10 22 12H20C19.2287 7.85738 15.4929 4.71443 11 4.71443C6.50813 4.71443 2.77134 7.85738 2 12L0 12C0 10.5 1.17305 8.08376 2.40854 6.64772L0.220526 4.52514L1.65854 3.13013L3.84654 5.2537C4.82634 4.4607 5.93899 3.83648 7.13618 3.40815L6.33638 0.509695L8.29878 0L9.09959 2.89845C10.3574 2.68937 11.6426 2.68937 12.9004 2.89845L13.7012 0Z" fill="#1F1E25"/>
</svg>
