<svg version="1" xmlns="http://www.w3.org/2000/svg" width="1280" height="1280" viewBox="0 0 960.000000 960.000000"><path d="M430.1 131.8c-20.4 34-59.9 99.7-155.8 259.2C99 682.5 61.7 744.7 61.3 745.8c-.4 1 8 1.2 41.2 1l41.7-.3 5.5-9.5c19-32.7 56.6-98.9 77.8-137 13.6-24.5 34.3-61.6 46-82.5 11.7-20.9 54.9-98.3 96-172s78.9-141.4 84-150.5c24.8-44.2 53.7-96.2 54.2-97.5.4-1.3-3.4-1.5-27.8-1.5l-28.4.1-21.4 35.7zM532.2 119.7c-2.2 3.7-15 26.6-28.4 50.8-13.5 24.2-38.6 69.2-55.8 100-17.2 30.8-44.2 79.2-60 107.5-71.2 127.7-83.6 149.8-113 202.5-17.2 30.8-32.8 58.8-34.7 62.3l-3.5 6.2 33.2-.2 33.2-.3 34.7-60.5c29.6-51.6 95.2-165.8 176.8-308 11.2-19.5 20.7-35.8 21.1-36.2.4-.4 75.8 134.5 167.6 299.7C795.2 708.8 870.6 844 870.9 844c.8 0 38.4-78.7 38.4-80.3 0-.7-9.8-18.3-21.8-39.2-12-20.9-29.5-51.5-39-68s-33.6-58.6-53.7-93.5c-20-34.9-58.5-102-85.5-149s-76.9-133.9-110.8-193c-33.9-59.1-61.8-107.6-62-107.8-.2-.2-2.1 2.7-4.3 6.5z"/><path d="M517.3 339.9c-10.1 17.5-18.3 32.2-18.3 32.8 0 .5 14.3 25.9 31.8 56.4s58.3 101.5 90.7 157.9c32.3 56.4 70 122 83.7 145.9 13.8 23.9 25.2 44 25.5 44.8.4 1.1-56.8 1.3-336.1 1.3-185.1 0-336.6.3-336.6.7.1.5 9 19.5 19.9 42.3l19.9 41.5 373.2.3c355.2.2 373.2.1 372.5-1.5-.8-2.3-306.4-552.6-307.3-553.5-.4-.4-8.9 13.6-18.9 31.1z"/><path d="M422.9 504.2c-31 54.1-62.3 108.6-69.6 121.3l-13.2 23 69.9.3c38.5.1 101.5.1 140 0l69.9-.3-13.2-23c-7.3-12.7-38.6-67.2-69.6-121.3-31-54-56.7-98.2-57.1-98.2-.4 0-26.1 44.2-57.1 98.2zM218.3 682.2c-2 2.5-36.3 62.9-36.3 63.8 0 .7 85.6 1 247 1 135.9 0 247-.2 247-.4 0-.7-35.6-62.4-37-64.1-1.1-1.3-23.6-1.5-210.5-1.5-166.2 0-209.5.3-210.2 1.2z"/></svg>